<?xml version="1.0" encoding="UTF-8"?>
<!DOCTYPE svg PUBLIC "-//W3C//DTD SVG 1.1//EN" "http://www.w3.org/Graphics/SVG/1.1/DTD/svg11.dtd">
<svg xmlns="http://www.w3.org/2000/svg" version="1.1" width="512px" height="512px" style="shape-rendering:geometricPrecision; text-rendering:geometricPrecision; image-rendering:optimizeQuality; fill-rule:evenodd; clip-rule:evenodd" xmlns:xlink="http://www.w3.org/1999/xlink">
<g><path style="opacity:1" fill="#0955b6" d="M 447.5,127.5 C 436.833,127.5 426.167,127.5 415.5,127.5C 415.5,106.167 415.5,84.8333 415.5,63.5C 308.833,63.5 202.167,63.5 95.5,63.5C 95.5,84.8333 95.5,106.167 95.5,127.5C 84.8333,127.5 74.1667,127.5 63.5,127.5C 63.5,95.5 63.5,63.5 63.5,31.5C 191.5,31.5 319.5,31.5 447.5,31.5C 447.5,63.5 447.5,95.5 447.5,127.5 Z"/></g>
<g><path style="opacity:1" fill="#95f3fe" d="M 415.5,127.5 C 394.167,127.5 372.833,127.5 351.5,127.5C 330.167,127.5 308.833,127.5 287.5,127.5C 266.167,127.5 244.833,127.5 223.5,127.5C 202.167,127.5 180.833,127.5 159.5,127.5C 138.167,127.5 116.833,127.5 95.5,127.5C 95.5,106.167 95.5,84.8333 95.5,63.5C 202.167,63.5 308.833,63.5 415.5,63.5C 415.5,84.8333 415.5,106.167 415.5,127.5 Z"/></g>
<g><path style="opacity:1" fill="#002ea7" d="M 63.5,127.5 C 74.1667,127.5 84.8333,127.5 95.5,127.5C 95.5,148.833 95.5,170.167 95.5,191.5C 95.5,202.167 95.5,212.833 95.5,223.5C 95.5,234.167 95.5,244.833 95.5,255.5C 95.5,276.833 95.5,298.167 95.5,319.5C 95.5,340.833 95.5,362.167 95.5,383.5C 84.8333,383.5 74.1667,383.5 63.5,383.5C 63.5,298.167 63.5,212.833 63.5,127.5 Z"/></g>
<g><path style="opacity:1" fill="#febc00" d="M 95.5,127.5 C 116.833,127.5 138.167,127.5 159.5,127.5C 159.5,138.167 159.5,148.833 159.5,159.5C 159.5,170.167 159.5,180.833 159.5,191.5C 138.167,191.5 116.833,191.5 95.5,191.5C 95.5,170.167 95.5,148.833 95.5,127.5 Z"/></g>
<g><path style="opacity:1" fill="#0990b6" d="M 159.5,127.5 C 180.833,127.5 202.167,127.5 223.5,127.5C 223.5,138.167 223.5,148.833 223.5,159.5C 202.167,159.5 180.833,159.5 159.5,159.5C 159.5,148.833 159.5,138.167 159.5,127.5 Z"/></g>
<g><path style="opacity:1" fill="#0955b6" d="M 223.5,127.5 C 244.833,127.5 266.167,127.5 287.5,127.5C 287.5,138.167 287.5,148.833 287.5,159.5C 287.5,170.167 287.5,180.833 287.5,191.5C 266.167,191.5 244.833,191.5 223.5,191.5C 223.5,180.833 223.5,170.167 223.5,159.5C 223.5,148.833 223.5,138.167 223.5,127.5 Z"/></g>
<g><path style="opacity:1" fill="#0990b6" d="M 287.5,127.5 C 308.833,127.5 330.167,127.5 351.5,127.5C 351.5,138.167 351.5,148.833 351.5,159.5C 330.167,159.5 308.833,159.5 287.5,159.5C 287.5,148.833 287.5,138.167 287.5,127.5 Z"/></g>
<g><path style="opacity:1" fill="#0955b6" d="M 351.5,127.5 C 372.833,127.5 394.167,127.5 415.5,127.5C 415.5,148.833 415.5,170.167 415.5,191.5C 394.167,191.5 372.833,191.5 351.5,191.5C 351.5,180.833 351.5,170.167 351.5,159.5C 351.5,148.833 351.5,138.167 351.5,127.5 Z"/></g>
<g><path style="opacity:1" fill="#002ea7" d="M 415.5,127.5 C 426.167,127.5 436.833,127.5 447.5,127.5C 447.5,212.833 447.5,298.167 447.5,383.5C 436.833,383.5 426.167,383.5 415.5,383.5C 415.5,362.167 415.5,340.833 415.5,319.5C 415.5,298.167 415.5,276.833 415.5,255.5C 415.5,234.167 415.5,212.833 415.5,191.5C 415.5,170.167 415.5,148.833 415.5,127.5 Z"/></g>
<g><path style="opacity:1" fill="#0ab7cf" d="M 159.5,159.5 C 180.833,159.5 202.167,159.5 223.5,159.5C 223.5,170.167 223.5,180.833 223.5,191.5C 202.167,191.5 180.833,191.5 159.5,191.5C 159.5,180.833 159.5,170.167 159.5,159.5 Z"/></g>
<g><path style="opacity:1" fill="#0ab7cf" d="M 287.5,159.5 C 308.833,159.5 330.167,159.5 351.5,159.5C 351.5,170.167 351.5,180.833 351.5,191.5C 330.167,191.5 308.833,191.5 287.5,191.5C 287.5,180.833 287.5,170.167 287.5,159.5 Z"/></g>
<g><path style="opacity:1" fill="#0990b6" d="M 95.5,191.5 C 116.833,191.5 138.167,191.5 159.5,191.5C 159.5,202.167 159.5,212.833 159.5,223.5C 138.167,223.5 116.833,223.5 95.5,223.5C 95.5,212.833 95.5,202.167 95.5,191.5 Z"/></g>
<g><path style="opacity:1" fill="#feef00" d="M 159.5,191.5 C 180.833,191.5 202.167,191.5 223.5,191.5C 223.5,212.833 223.5,234.167 223.5,255.5C 202.167,255.5 180.833,255.5 159.5,255.5C 159.5,244.833 159.5,234.167 159.5,223.5C 159.5,212.833 159.5,202.167 159.5,191.5 Z"/></g>
<g><path style="opacity:1" fill="#0ab7cf" d="M 223.5,191.5 C 244.833,191.5 266.167,191.5 287.5,191.5C 287.5,212.833 287.5,234.167 287.5,255.5C 266.167,255.5 244.833,255.5 223.5,255.5C 223.5,234.167 223.5,212.833 223.5,191.5 Z"/></g>
<g><path style="opacity:1" fill="#0955b6" d="M 287.5,191.5 C 308.833,191.5 330.167,191.5 351.5,191.5C 351.5,212.833 351.5,234.167 351.5,255.5C 330.167,255.5 308.833,255.5 287.5,255.5C 287.5,234.167 287.5,212.833 287.5,191.5 Z"/></g>
<g><path style="opacity:1" fill="#0ab7cf" d="M 351.5,191.5 C 372.833,191.5 394.167,191.5 415.5,191.5C 415.5,212.833 415.5,234.167 415.5,255.5C 394.167,255.5 372.833,255.5 351.5,255.5C 351.5,234.167 351.5,212.833 351.5,191.5 Z"/></g>
<g><path style="opacity:1" fill="#0ab7cf" d="M 95.5,223.5 C 116.833,223.5 138.167,223.5 159.5,223.5C 159.5,234.167 159.5,244.833 159.5,255.5C 138.167,255.5 116.833,255.5 95.5,255.5C 95.5,244.833 95.5,234.167 95.5,223.5 Z"/></g>
<g><path style="opacity:1" fill="#0955b6" d="M 95.5,255.5 C 116.833,255.5 138.167,255.5 159.5,255.5C 159.5,266.167 159.5,276.833 159.5,287.5C 159.5,298.167 159.5,308.833 159.5,319.5C 138.167,319.5 116.833,319.5 95.5,319.5C 95.5,298.167 95.5,276.833 95.5,255.5 Z"/></g>
<g><path style="opacity:1" fill="#0990b6" d="M 159.5,255.5 C 180.833,255.5 202.167,255.5 223.5,255.5C 223.5,266.167 223.5,276.833 223.5,287.5C 202.167,287.5 180.833,287.5 159.5,287.5C 159.5,276.833 159.5,266.167 159.5,255.5 Z"/></g>
<g><path style="opacity:1" fill="#feef00" d="M 223.5,255.5 C 244.833,255.5 266.167,255.5 287.5,255.5C 287.5,276.833 287.5,298.167 287.5,319.5C 266.167,319.5 244.833,319.5 223.5,319.5C 223.5,308.833 223.5,298.167 223.5,287.5C 223.5,276.833 223.5,266.167 223.5,255.5 Z"/></g>
<g><path style="opacity:1" fill="#0ab7cf" d="M 287.5,255.5 C 308.833,255.5 330.167,255.5 351.5,255.5C 351.5,276.833 351.5,298.167 351.5,319.5C 330.167,319.5 308.833,319.5 287.5,319.5C 287.5,298.167 287.5,276.833 287.5,255.5 Z"/></g>
<g><path style="opacity:1" fill="#0955b6" d="M 351.5,255.5 C 372.833,255.5 394.167,255.5 415.5,255.5C 415.5,276.833 415.5,298.167 415.5,319.5C 394.167,319.5 372.833,319.5 351.5,319.5C 351.5,298.167 351.5,276.833 351.5,255.5 Z"/></g>
<g><path style="opacity:1" fill="#0ab7cf" d="M 159.5,287.5 C 180.833,287.5 202.167,287.5 223.5,287.5C 223.5,298.167 223.5,308.833 223.5,319.5C 202.167,319.5 180.833,319.5 159.5,319.5C 159.5,308.833 159.5,298.167 159.5,287.5 Z"/></g>
<g><path style="opacity:1" fill="#0990b6" d="M 95.5,319.5 C 116.833,319.5 138.167,319.5 159.5,319.5C 159.5,340.833 159.5,362.167 159.5,383.5C 138.167,383.5 116.833,383.5 95.5,383.5C 95.5,362.167 95.5,340.833 95.5,319.5 Z"/></g>
<g><path style="opacity:1" fill="#0955b6" d="M 159.5,319.5 C 180.833,319.5 202.167,319.5 223.5,319.5C 223.5,330.167 223.5,340.833 223.5,351.5C 223.5,362.167 223.5,372.833 223.5,383.5C 202.167,383.5 180.833,383.5 159.5,383.5C 159.5,362.167 159.5,340.833 159.5,319.5 Z"/></g>
<g><path style="opacity:1" fill="#0990b6" d="M 223.5,319.5 C 244.833,319.5 266.167,319.5 287.5,319.5C 287.5,330.167 287.5,340.833 287.5,351.5C 266.167,351.5 244.833,351.5 223.5,351.5C 223.5,340.833 223.5,330.167 223.5,319.5 Z"/></g>
<g><path style="opacity:1" fill="#feef00" d="M 287.5,319.5 C 308.833,319.5 330.167,319.5 351.5,319.5C 351.5,340.833 351.5,362.167 351.5,383.5C 330.167,383.5 308.833,383.5 287.5,383.5C 287.5,372.833 287.5,362.167 287.5,351.5C 287.5,340.833 287.5,330.167 287.5,319.5 Z"/></g>
<g><path style="opacity:1" fill="#0990b6" d="M 351.5,319.5 C 372.833,319.5 394.167,319.5 415.5,319.5C 415.5,340.833 415.5,362.167 415.5,383.5C 394.167,383.5 372.833,383.5 351.5,383.5C 351.5,362.167 351.5,340.833 351.5,319.5 Z"/></g>
<g><path style="opacity:1" fill="#0ab7cf" d="M 223.5,351.5 C 244.833,351.5 266.167,351.5 287.5,351.5C 287.5,362.167 287.5,372.833 287.5,383.5C 266.167,383.5 244.833,383.5 223.5,383.5C 223.5,372.833 223.5,362.167 223.5,351.5 Z"/></g>
<g><path style="opacity:1" fill="#3b0065" d="M 63.5,383.5 C 74.1667,383.5 84.8333,383.5 95.5,383.5C 95.5,404.833 95.5,426.167 95.5,447.5C 116.833,447.5 138.167,447.5 159.5,447.5C 180.833,447.5 202.167,447.5 223.5,447.5C 244.833,447.5 266.167,447.5 287.5,447.5C 308.833,447.5 330.167,447.5 351.5,447.5C 372.833,447.5 394.167,447.5 415.5,447.5C 415.5,426.167 415.5,404.833 415.5,383.5C 426.167,383.5 436.833,383.5 447.5,383.5C 447.5,415.5 447.5,447.5 447.5,479.5C 319.5,479.5 191.5,479.5 63.5,479.5C 63.5,447.5 63.5,415.5 63.5,383.5 Z"/></g>
<g><path style="opacity:1" fill="#002ea7" d="M 95.5,383.5 C 116.833,383.5 138.167,383.5 159.5,383.5C 159.5,404.833 159.5,426.167 159.5,447.5C 138.167,447.5 116.833,447.5 95.5,447.5C 95.5,426.167 95.5,404.833 95.5,383.5 Z"/></g>
<g><path style="opacity:1" fill="#0990b6" d="M 159.5,383.5 C 180.833,383.5 202.167,383.5 223.5,383.5C 223.5,404.833 223.5,426.167 223.5,447.5C 202.167,447.5 180.833,447.5 159.5,447.5C 159.5,426.167 159.5,404.833 159.5,383.5 Z"/></g>
<g><path style="opacity:1" fill="#002ea7" d="M 223.5,383.5 C 244.833,383.5 266.167,383.5 287.5,383.5C 287.5,394.167 287.5,404.833 287.5,415.5C 287.5,426.167 287.5,436.833 287.5,447.5C 266.167,447.5 244.833,447.5 223.5,447.5C 223.5,426.167 223.5,404.833 223.5,383.5 Z"/></g>
<g><path style="opacity:1" fill="#0955b6" d="M 287.5,383.5 C 308.833,383.5 330.167,383.5 351.5,383.5C 351.5,394.167 351.5,404.833 351.5,415.5C 330.167,415.5 308.833,415.5 287.5,415.5C 287.5,404.833 287.5,394.167 287.5,383.5 Z"/></g>
<g><path style="opacity:1" fill="#febc00" d="M 351.5,383.5 C 372.833,383.5 394.167,383.5 415.5,383.5C 415.5,404.833 415.5,426.167 415.5,447.5C 394.167,447.5 372.833,447.5 351.5,447.5C 351.5,436.833 351.5,426.167 351.5,415.5C 351.5,404.833 351.5,394.167 351.5,383.5 Z"/></g>
<g><path style="opacity:1" fill="#0990b6" d="M 287.5,415.5 C 308.833,415.5 330.167,415.5 351.5,415.5C 351.5,426.167 351.5,436.833 351.5,447.5C 330.167,447.5 308.833,447.5 287.5,447.5C 287.5,436.833 287.5,426.167 287.5,415.5 Z"/></g>
</svg>
